<svg width="100%" height="100%" viewBox="0 0 40 40" fill="none" xmlns="http://www.w3.org/2000/svg">
    <path d="M39.7523 19.8828C39.7523 30.9906 30.8514 40 19.8754 40C8.89947 40 0 30.9936 0 19.8828C0 9.81389 7.29044 1.48154 16.8318 0V8.28253C14.2931 8.97937 12.0549 10.4934 10.4634 12.5903C8.87191 14.6873 8.01579 17.2503 8.02754 19.8828C8.02754 26.5064 13.3309 31.8743 19.8754 31.8743C26.42 31.8743 31.716 26.4991 31.716 19.8828C31.7255 17.252 30.8683 14.6914 29.277 12.5965C27.6856 10.5017 25.4487 8.98918 22.9118 8.29279V0.00292922C32.4487 1.47567 39.7523 9.81682 39.7523 19.8828Z" fill="currentColor"></path>
</svg>